# xmcd CD database file
#
# Track frame offsets:
#	150
#	8473
#	18368
#	27413
#	40273
#	51794
#	65135
#	75218
#	91488
#	101614
#	109271
#	130491
#	143608
#
# Disc length: 2096 seconds
#
# Revision: 0
# Processed by: cddbd v1.5PL3 Copyright (c) Steve Scherf et al.
# Submitted via: CDex 1.51
#
DISCID=a1082e0d
DTITLE=Count Basie - Count Basie American Jazz and Blues History
DYEAR=1999
DGENRE=Jazz
TTITLE0=swing brother swing
TTITLE1=Basie boogie
TTITLE2=Wiggle woogie
TTITLE3=rockin´ the blues
TTITLE4=the Count steps in
TTITLE5=I´ll always be in love with you
TTITLE6=when my dream boat comes home
TTITLE7=the me and you used to be
TTITLE8=shout and feel it
TTITLE9=Moten swing
TTITLE10=Andy´s blues
TTITLE11=I´ve found a new baby
TTITLE12=down for double
EXTD=YEAR: 1999
EXTT0=
EXTT1=
EXTT2=
EXTT3=
EXTT4=
EXTT5=
EXTT6=
EXTT7=
EXTT8=
EXTT9=
EXTT10=
EXTT11=
EXTT12=
PLAYORDER=
